<svg width="25" height="24" viewBox="0 0 25 24" fill="none" xmlns="http://www.w3.org/2000/svg">
<path fill-rule="evenodd" clip-rule="evenodd" d="M17.5 5C17.5 4.58579 17.8358 4.25 18.25 4.25H21.25C21.6642 4.25 22 4.58579 22 5C22 5.41421 21.6642 5.75 21.25 5.75H18.25C17.8358 5.75 17.5 5.41421 17.5 5Z" fill="#002A87"/>
<path fill-rule="evenodd" clip-rule="evenodd" d="M14.25 2.25C14.6642 2.25 15 2.58579 15 3V7C15 7.41421 14.6642 7.75 14.25 7.75C13.8358 7.75 13.5 7.41421 13.5 7V3C13.5 2.58579 13.8358 2.25 14.25 2.25Z" fill="#002A87"/>
<path fill-rule="evenodd" clip-rule="evenodd" d="M2.5 5C2.5 4.58579 2.83579 4.25 3.25 4.25H14.25C14.6642 4.25 15 4.58579 15 5C15 5.41421 14.6642 5.75 14.25 5.75H3.25C2.83579 5.75 2.5 5.41421 2.5 5Z" fill="#002A87"/>
<path fill-rule="evenodd" clip-rule="evenodd" d="M2.5 12C2.5 11.5858 2.83579 11.25 3.25 11.25H7.25C7.66421 11.25 8 11.5858 8 12C8 12.4142 7.66421 12.75 7.25 12.75H3.25C2.83579 12.75 2.5 12.4142 2.5 12Z" fill="#002A87"/>
<path fill-rule="evenodd" clip-rule="evenodd" d="M11.25 9.25C11.6642 9.25 12 9.58579 12 10V14C12 14.4142 11.6642 14.75 11.25 14.75C10.8358 14.75 10.5 14.4142 10.5 14V10C10.5 9.58579 10.8358 9.25 11.25 9.25Z" fill="#002A87"/>
<path fill-rule="evenodd" clip-rule="evenodd" d="M10.5 12C10.5 11.5858 10.8358 11.25 11.25 11.25H22.25C22.6642 11.25 23 11.5858 23 12C23 12.4142 22.6642 12.75 22.25 12.75H11.25C10.8358 12.75 10.5 12.4142 10.5 12Z" fill="#002A87"/>
<path fill-rule="evenodd" clip-rule="evenodd" d="M17.5 19C17.5 18.5858 17.8358 18.25 18.25 18.25H21.25C21.6642 18.25 22 18.5858 22 19C22 19.4142 21.6642 19.75 21.25 19.75H18.25C17.8358 19.75 17.5 19.4142 17.5 19Z" fill="#002A87"/>
<path fill-rule="evenodd" clip-rule="evenodd" d="M14.25 16.25C14.6642 16.25 15 16.5858 15 17V21C15 21.4142 14.6642 21.75 14.25 21.75C13.8358 21.75 13.5 21.4142 13.5 21V17C13.5 16.5858 13.8358 16.25 14.25 16.25Z" fill="#002A87"/>
<path fill-rule="evenodd" clip-rule="evenodd" d="M2.5 19C2.5 18.5858 2.83579 18.25 3.25 18.25H14.25C14.6642 18.25 15 18.5858 15 19C15 19.4142 14.6642 19.75 14.25 19.75H3.25C2.83579 19.75 2.5 19.4142 2.5 19Z" fill="#002A87"/>
</svg>
