<svg width="24" height="25" viewBox="0 0 24 25" fill="none" xmlns="http://www.w3.org/2000/svg">
<path d="M7.6967 3.97562C7.46498 3.80406 7.14455 3.77487 6.8781 3.92701L7.6967 3.97562Z" fill="#002A87"/>
<path d="M17.1219 3.92701C16.7622 3.72162 16.3041 3.84671 16.0987 4.20642C16.0509 4.29012 16.0157 4.4246 16.0025 4.51454L18.1467 4.59609C17.8197 4.35365 17.4775 4.13008 17.1219 3.92701Z" fill="#002A87"/>
<path d="M7.6219 5.22962C7.9816 5.02422 8.10669 4.56612 7.9013 4.20642C7.86538 4.15644 7.84525 4.12841 7.80933 4.07843L7.6967 3.97562L6.8781 3.92701L6.81712 3.97223C5.45632 4.98118 4.77176 5.48874 4.31593 5.99847C2.72041 7.78282 1.75 10.1303 1.75 12.7011C1.75 18.3033 6.34831 22.8283 12 22.8283C17.6517 22.8283 22.25 18.3033 22.25 12.7011C22.25 10.1303 21.2796 7.78284 19.6841 5.9985C19.2215 5.4812 18.7063 5.01096 18.1467 4.59609L16.0025 4.51454C15.9787 4.79652 16.1162 5.08006 16.3781 5.22962C16.6819 5.40306 16.9741 5.59402 17.2533 5.80105C17.7312 6.15536 18.1711 6.55686 18.5659 6.99836C19.9266 8.52011 20.75 10.5155 20.75 12.7011C20.75 17.4566 16.8417 21.3283 12 21.3283C7.15829 21.3283 3.25 17.4566 3.25 12.7011C3.25 10.5155 4.07336 8.5201 5.43407 6.99836C5.82888 6.55686 6.2688 6.15534 6.74671 5.80103C7.02592 5.594 7.31814 5.40306 7.6219 5.22962Z" fill="#002A87"/>
<path d="M12 1.82831C12.4142 1.82831 12.75 2.16409 12.75 2.57831V12.5783C12.75 12.9925 12.4142 13.3283 12 13.3283C11.5858 13.3283 11.25 12.9925 11.25 12.5783V2.57831C11.25 2.16409 11.5858 1.82831 12 1.82831Z" fill="#002A87"/>
</svg>
