<svg width="25" height="24" viewBox="0 0 25 24" fill="none" xmlns="http://www.w3.org/2000/svg">
<path fill-rule="evenodd" clip-rule="evenodd" d="M3.75 3C3.75 2.0335 4.5335 1.25 5.5 1.25H19.5C20.4665 1.25 21.25 2.03351 21.25 3V13.5C21.25 13.9142 20.9142 14.25 20.5 14.25C20.0858 14.25 19.75 13.9142 19.75 13.5V3C19.75 2.86192 19.6381 2.75 19.5 2.75H5.5C5.36193 2.75 5.25 2.86193 5.25 3V21C5.25 21.1381 5.36192 21.25 5.5 21.25H11C11.4142 21.25 11.75 21.5858 11.75 22C11.75 22.4142 11.4142 22.75 11 22.75H5.5C4.53351 22.75 3.75 21.9665 3.75 21V3Z" fill="#002A87"/>
<path fill-rule="evenodd" clip-rule="evenodd" d="M8.25 6C8.25 5.58579 8.58579 5.25 9 5.25H16C16.4142 5.25 16.75 5.58579 16.75 6C16.75 6.41421 16.4142 6.75 16 6.75H9C8.58579 6.75 8.25 6.41421 8.25 6Z" fill="#002A87"/>
<path fill-rule="evenodd" clip-rule="evenodd" d="M8.25 10C8.25 9.58579 8.58579 9.25 9 9.25H16C16.4142 9.25 16.75 9.58579 16.75 10C16.75 10.4142 16.4142 10.75 16 10.75H9C8.58579 10.75 8.25 10.4142 8.25 10Z" fill="#002A87"/>
<path fill-rule="evenodd" clip-rule="evenodd" d="M8.25 14C8.25 13.5858 8.58579 13.25 9 13.25H12C12.4142 13.25 12.75 13.5858 12.75 14C12.75 14.4142 12.4142 14.75 12 14.75H9C8.58579 14.75 8.25 14.4142 8.25 14Z" fill="#002A87"/>
<path fill-rule="evenodd" clip-rule="evenodd" d="M13.25 18.5C13.25 16.7051 14.7051 15.25 16.5 15.25C18.2949 15.25 19.75 16.7051 19.75 18.5C19.75 19.1254 19.5729 19.7102 19.2666 20.206L20.5303 21.4697C20.8232 21.7626 20.8232 22.2374 20.5303 22.5303C20.2374 22.8232 19.7626 22.8232 19.4697 22.5303L18.206 21.2666C17.7102 21.5729 17.1254 21.75 16.5 21.75C14.7051 21.75 13.25 20.2949 13.25 18.5ZM17.7374 19.7374C18.055 19.4199 18.25 18.9835 18.25 18.5C18.25 17.5335 17.4665 16.75 16.5 16.75C15.5335 16.75 14.75 17.5335 14.75 18.5C14.75 19.4665 15.5335 20.25 16.5 20.25C16.9835 20.25 17.4199 20.055 17.7374 19.7374C17.7374 19.7374 17.7374 19.7374 17.7374 19.7374L17.7374 19.7374Z" fill="#002A87"/>
</svg>
